<svg width="27" height="27" viewBox="0 0 27 27" fill="none" xmlns="http://www.w3.org/2000/svg">
<path d="M3.29167 22.0313C4.60417 20.7431 6.12934 19.7283 7.86719 18.987C9.60504 18.2457 11.4826 17.875 13.5 17.875C15.5174 17.875 17.395 18.2457 19.1328 18.987C20.8707 19.7283 22.3958 20.7431 23.7083 22.0313V3.29167H3.29167V22.0313ZM13.5 14.9583C14.9097 14.9583 16.1128 14.4601 17.1094 13.4635C18.1059 12.467 18.6042 11.2639 18.6042 9.85417C18.6042 8.44444 18.1059 7.24132 17.1094 6.24479C16.1128 5.24826 14.9097 4.75 13.5 4.75C12.0903 4.75 10.8872 5.24826 9.89062 6.24479C8.8941 7.24132 8.39583 8.44444 8.39583 9.85417C8.39583 11.2639 8.8941 12.467 9.89062 13.4635C10.8872 14.4601 12.0903 14.9583 13.5 14.9583ZM3.29167 26.625C2.48958 26.625 1.80295 26.3394 1.23177 25.7682C0.66059 25.1971 0.375 24.5104 0.375 23.7083V3.29167C0.375 2.48958 0.66059 1.80295 1.23177 1.23177C1.80295 0.66059 2.48958 0.375 3.29167 0.375H23.7083C24.5104 0.375 25.1971 0.66059 25.7682 1.23177C26.3394 1.80295 26.625 2.48958 26.625 3.29167V23.7083C26.625 24.5104 26.3394 25.1971 25.7682 25.7682C25.1971 26.3394 24.5104 26.625 23.7083 26.625H3.29167ZM5.80729 23.7083H21.1927C20.1233 22.7604 18.9141 22.0373 17.5651 21.5391C16.2161 21.0408 14.8611 20.7917 13.5 20.7917C12.1389 20.7917 10.7717 21.0408 9.39844 21.5391C8.02517 22.0373 6.82813 22.7604 5.80729 23.7083ZM13.5 12.0417C12.8924 12.0417 12.3759 11.829 11.9505 11.4036C11.5252 10.9783 11.3125 10.4618 11.3125 9.85417C11.3125 9.24653 11.5252 8.73003 11.9505 8.30469C12.3759 7.87934 12.8924 7.66667 13.5 7.66667C14.1076 7.66667 14.6241 7.87934 15.0495 8.30469C15.4748 8.73003 15.6875 9.24653 15.6875 9.85417C15.6875 10.4618 15.4748 10.9783 15.0495 11.4036C14.6241 11.829 14.1076 12.0417 13.5 12.0417Z" fill="#B8B8B8"/>
</svg>
