<svg width="29" height="29" viewBox="0 0 29 29" fill="none" xmlns="http://www.w3.org/2000/svg">
<path d="M14.5003 16.6878C16.0073 16.6878 17.2833 16.1653 18.3285 15.1201C19.3736 14.075 19.8962 12.7989 19.8962 11.292C19.8962 9.78505 19.3736 8.51508 18.3285 7.4821C17.2833 6.44911 16.0073 5.93262 14.5003 5.93262C12.9934 5.93262 11.7173 6.44911 10.6722 7.4821C9.62706 8.51508 9.10449 9.78505 9.10449 11.292C9.10449 12.7989 9.62706 14.075 10.6722 15.1201C11.7173 16.1653 12.9934 16.6878 14.5003 16.6878ZM4.72949 28.8649C3.4413 28.8649 2.35362 28.4213 1.46647 27.5342C0.579319 26.647 0.135742 25.5594 0.135742 24.2712V4.72949C0.135742 3.4413 0.579319 2.35362 1.46647 1.46647C2.35362 0.579319 3.4413 0.135742 4.72949 0.135742H24.2712C25.5594 0.135742 26.647 0.579319 27.5342 1.46647C28.4213 2.35362 28.8649 3.4413 28.8649 4.72949V24.2712C28.8649 25.5594 28.4213 26.647 27.5342 27.5342C26.647 28.4213 25.5594 28.8649 24.2712 28.8649H4.72949ZM4.72949 24.2712H24.2712V21.792C22.9587 20.6253 21.5064 19.7382 19.9144 19.1305C18.3224 18.5229 16.5177 18.2191 14.5003 18.2191C12.483 18.2191 10.6783 18.535 9.08626 19.167C7.49425 19.7989 6.04199 20.6982 4.72949 21.8649V24.2712Z" fill="#F5A623"/>
</svg>
