<svg width="25" height="30" viewBox="0 0 25 30" fill="none" xmlns="http://www.w3.org/2000/svg">
<path d="M11.0423 14.041V16.9577C11.0423 17.3709 11.1821 17.7172 11.4616 17.9967C11.7411 18.2763 12.0875 18.416 12.5007 18.416C12.9138 18.416 13.2602 18.2763 13.5397 17.9967C13.8192 17.7172 13.959 17.3709 13.959 16.9577V14.041H16.8757C17.2888 14.041 17.6352 13.9013 17.9147 13.6217C18.1942 13.3422 18.334 12.9959 18.334 12.5827C18.334 12.1695 18.1942 11.8231 17.9147 11.5436C17.6352 11.2641 17.2888 11.1243 16.8757 11.1243H13.959V8.20768C13.959 7.79449 13.8192 7.44813 13.5397 7.16862C13.2602 6.88911 12.9138 6.74935 12.5007 6.74935C12.0875 6.74935 11.7411 6.88911 11.4616 7.16862C11.1821 7.44813 11.0423 7.79449 11.0423 8.20768V11.1243H8.12565C7.71246 11.1243 7.3661 11.2641 7.08659 11.5436C6.80707 11.8231 6.66732 12.1695 6.66732 12.5827C6.66732 12.9959 6.80707 13.3422 7.08659 13.6217C7.3661 13.9013 7.71246 14.041 8.12565 14.041H11.0423ZM12.5007 26.2181C15.4659 23.4959 17.6656 21.0228 19.0996 18.7988C20.5336 16.5749 21.2507 14.6 21.2507 12.8743C21.2507 10.225 20.406 8.05577 18.7168 6.36654C17.0276 4.6773 14.9555 3.83268 12.5007 3.83268C10.0458 3.83268 7.97374 4.6773 6.28451 6.36654C4.59527 8.05577 3.75065 10.225 3.75065 12.8743C3.75065 14.6 4.46767 16.5749 5.90169 18.7988C7.33572 21.0228 9.53537 23.4959 12.5007 26.2181ZM12.5007 29.0983C12.1604 29.0983 11.8201 29.0375 11.4798 28.916C11.1395 28.7945 10.8357 28.6122 10.5684 28.3691C8.9885 26.9108 7.59093 25.4889 6.37565 24.1035C5.16037 22.7181 4.14562 21.3752 3.33138 20.0749C2.51714 18.7745 1.89735 17.5228 1.47201 16.3197C1.04666 15.1165 0.833984 13.9681 0.833984 12.8743C0.833984 9.22852 2.00673 6.324 4.35221 4.16081C6.6977 1.99761 9.41385 0.916016 12.5007 0.916016C15.5875 0.916016 18.3036 1.99761 20.6491 4.16081C22.9946 6.324 24.1673 9.22852 24.1673 12.8743C24.1673 13.9681 23.9546 15.1165 23.5293 16.3197C23.104 17.5228 22.4842 18.7745 21.6699 20.0749C20.8557 21.3752 19.8409 22.7181 18.6257 24.1035C17.4104 25.4889 16.0128 26.9108 14.4329 28.3691C14.1656 28.6122 13.8618 28.7945 13.5215 28.916C13.1812 29.0375 12.8409 29.0983 12.5007 29.0983Z" fill="#B8B8B8"/>
</svg>
