<svg width="27" height="32" viewBox="0 0 27 32" fill="none" xmlns="http://www.w3.org/2000/svg">
<path d="M11.75 15.5882V18.2132C11.75 18.7091 11.9177 19.1247 12.2531 19.4601C12.5885 19.7955 13.0042 19.9632 13.5 19.9632C13.9958 19.9632 14.4115 19.7955 14.7469 19.4601C15.0823 19.1247 15.25 18.7091 15.25 18.2132V15.5882H17.9115C18.3968 15.5882 18.8038 15.4205 19.1324 15.0851C19.4608 14.7497 19.625 14.3341 19.625 13.8382C19.625 13.3528 19.4608 12.9458 19.1324 12.6172C18.8038 12.2889 18.3968 12.1247 17.9115 12.1247H15.25V9.49967C15.25 9.00384 15.0823 8.58822 14.7469 8.2528C14.4115 7.91738 13.9958 7.74967 13.5 7.74967C13.0042 7.74967 12.5885 7.91738 12.2531 8.2528C11.9177 8.58822 11.75 9.00384 11.75 9.49967V12.1247H9.08854C8.60292 12.1247 8.19592 12.289 7.86755 12.6176C7.53919 12.9462 7.375 13.3533 7.375 13.8389C7.375 14.3246 7.54271 14.7375 7.87813 15.0778C8.21354 15.4181 8.62917 15.5882 9.125 15.5882H11.75ZM13.4913 31.1195C13.0596 31.1195 12.63 31.0466 12.2024 30.9007C11.7749 30.7549 11.3932 30.5361 11.0573 30.2445C9.3316 28.7132 7.8125 27.2427 6.5 25.833C5.1875 24.4233 4.09375 23.0439 3.21875 21.695C2.34375 20.346 1.6875 19.0153 1.25 17.7028C0.8125 16.3903 0.59375 15.0656 0.59375 13.7288C0.59375 9.74954 1.89106 6.57936 4.48568 4.21832C7.08054 1.85728 10.0853 0.676758 13.5 0.676758C16.9147 0.676758 19.9195 1.85728 22.5143 4.21832C25.1089 6.57936 26.4063 9.74954 26.4063 13.7288C26.4063 15.0656 26.1875 16.3903 25.75 17.7028C25.3125 19.0153 24.6563 20.346 23.7813 21.695C22.9063 23.0439 21.8125 24.4233 20.5 25.833C19.1875 27.2427 17.6684 28.7132 15.9427 30.2445C15.6034 30.5361 15.2179 30.7549 14.7863 30.9007C14.3546 31.0466 13.9229 31.1195 13.4913 31.1195Z" fill="#F5A623"/>
</svg>
