<svg width="30" height="33" viewBox="0 0 30 33" fill="none" xmlns="http://www.w3.org/2000/svg">
<path d="M3.29167 29.6247C2.48958 29.6247 1.80295 29.3391 1.23177 28.7679C0.66059 28.1967 0.375 27.5101 0.375 26.708V6.29134C0.375 5.48926 0.66059 4.80263 1.23177 4.23145C1.80295 3.66026 2.48958 3.37467 3.29167 3.37467H9.41667C9.73264 2.49967 10.2613 1.79481 11.0026 1.26009C11.7439 0.725369 12.5764 0.458008 13.5 0.458008C14.4236 0.458008 15.2561 0.725369 15.9974 1.26009C16.7387 1.79481 17.2674 2.49967 17.5833 3.37467H23.7083C24.5104 3.37467 25.197 3.66026 25.7682 4.23145C26.3394 4.80263 26.625 5.48926 26.625 6.29134V13.6195C26.625 14.0327 26.4852 14.379 26.2057 14.6585C25.9262 14.938 25.5799 15.0778 25.1667 15.0778C24.7535 15.0778 24.4071 14.938 24.1276 14.6585C23.8481 14.379 23.7083 14.0327 23.7083 13.6195V6.29134H3.29167V26.708H10.5833C10.9965 26.708 11.3429 26.8478 11.6224 27.1273C11.9019 27.4068 12.0417 27.7531 12.0417 28.1663C12.0417 28.5795 11.9019 28.9259 11.6224 29.2054C11.3429 29.4849 10.9965 29.6247 10.5833 29.6247H3.29167ZM3.29167 26.708V6.29134V15.1507V15.0413V26.708ZM7.66667 23.7913H11.3125C11.7257 23.7913 12.072 23.6516 12.3516 23.3721C12.6311 23.0926 12.7708 22.7462 12.7708 22.333C12.7708 21.9198 12.6311 21.5735 12.3516 21.2939C12.072 21.0144 11.7257 20.8747 11.3125 20.8747H7.66667C7.25347 20.8747 6.90712 21.0144 6.6276 21.2939C6.34809 21.5735 6.20833 21.9198 6.20833 22.333C6.20833 22.7462 6.34809 23.0926 6.6276 23.3721C6.90712 23.6516 7.25347 23.7913 7.66667 23.7913ZM7.66667 17.958H14.9583C15.3715 17.958 15.7179 17.8183 15.9974 17.5387C16.2769 17.2592 16.4167 16.9129 16.4167 16.4997C16.4167 16.0865 16.2769 15.7401 15.9974 15.4606C15.7179 15.1811 15.3715 15.0413 14.9583 15.0413H7.66667C7.25347 15.0413 6.90712 15.1811 6.6276 15.4606C6.34809 15.7401 6.20833 16.0865 6.20833 16.4997C6.20833 16.9129 6.34809 17.2592 6.6276 17.5387C6.90712 17.8183 7.25347 17.958 7.66667 17.958ZM7.66667 12.1247H19.3333C19.7465 12.1247 20.0929 11.9849 20.3724 11.7054C20.6519 11.4259 20.7917 11.0795 20.7917 10.6663C20.7917 10.2531 20.6519 9.90679 20.3724 9.62728C20.0929 9.34776 19.7465 9.20801 19.3333 9.20801H7.66667C7.25347 9.20801 6.90712 9.34776 6.6276 9.62728C6.34809 9.90679 6.20833 10.2531 6.20833 10.6663C6.20833 11.0795 6.34809 11.4259 6.6276 11.7054C6.90712 11.9849 7.25347 12.1247 7.66667 12.1247ZM13.5 5.19759C13.816 5.19759 14.0773 5.09429 14.2839 4.8877C14.4905 4.6811 14.5937 4.41981 14.5937 4.10384C14.5937 3.78787 14.4905 3.52658 14.2839 3.31999C14.0773 3.11339 13.816 3.01009 13.5 3.01009C13.184 3.01009 12.9227 3.11339 12.7161 3.31999C12.5095 3.52658 12.4062 3.78787 12.4062 4.10384C12.4062 4.41981 12.5095 4.6811 12.7161 4.8877C12.9227 5.09429 13.184 5.19759 13.5 5.19759ZM22.25 32.5413C20.2326 32.5413 18.513 31.8304 17.0911 30.4085C15.6693 28.9867 14.9583 27.267 14.9583 25.2497C14.9583 23.2323 15.6693 21.5127 17.0911 20.0908C18.513 18.6689 20.2326 17.958 22.25 17.958C24.2674 17.958 25.987 18.6689 27.4089 20.0908C28.8307 21.5127 29.5417 23.2323 29.5417 25.2497C29.5417 27.267 28.8307 28.9867 27.4089 30.4085C25.987 31.8304 24.2674 32.5413 22.25 32.5413ZM21.5208 25.9788V28.8955C21.5208 29.09 21.5938 29.2601 21.7396 29.4059C21.8854 29.5518 22.0556 29.6247 22.25 29.6247C22.4444 29.6247 22.6146 29.5518 22.7604 29.4059C22.9062 29.2601 22.9792 29.09 22.9792 28.8955V25.9788H25.8958C26.0903 25.9788 26.2604 25.9059 26.4062 25.7601C26.5521 25.6143 26.625 25.4441 26.625 25.2497C26.625 25.0552 26.5521 24.8851 26.4062 24.7393C26.2604 24.5934 26.0903 24.5205 25.8958 24.5205H22.9792V21.6038C22.9792 21.4094 22.9062 21.2393 22.7604 21.0934C22.6146 20.9476 22.4444 20.8747 22.25 20.8747C22.0556 20.8747 21.8854 20.9476 21.7396 21.0934C21.5938 21.2393 21.5208 21.4094 21.5208 21.6038V24.5205H18.6042C18.4097 24.5205 18.2396 24.5934 18.0938 24.7393C17.9479 24.8851 17.875 25.0552 17.875 25.2497C17.875 25.4441 17.9479 25.6143 18.0938 25.7601C18.2396 25.9059 18.4097 25.9788 18.6042 25.9788H21.5208Z" fill="#B8B8B8"/>
</svg>
