<svg width="31" height="35" viewBox="0 0 31 35" fill="none" xmlns="http://www.w3.org/2000/svg">
<path d="M14.4994 6.48958C14.8997 6.48958 15.2306 6.3587 15.4921 6.09693C15.7539 5.8354 15.8848 5.50448 15.8848 5.10417C15.8848 4.70385 15.7539 4.37293 15.4921 4.11141C15.2306 3.84964 14.8997 3.71875 14.4994 3.71875C14.099 3.71875 13.7681 3.84964 13.5066 4.11141C13.2448 4.37293 13.1139 4.70385 13.1139 5.10417C13.1139 5.50448 13.2448 5.8354 13.5066 6.09693C13.7681 6.3587 14.099 6.48958 14.4994 6.48958ZM22.8119 34.2344C20.7945 34.2344 19.0749 33.5234 17.653 32.1016C16.2311 30.6797 15.5202 28.9601 15.5202 26.9427C15.5202 24.9253 16.2311 23.2057 17.653 21.7839C19.0749 20.362 20.7945 19.651 22.8119 19.651C24.8292 19.651 26.5488 20.362 27.9707 21.7839C29.3926 23.2057 30.1035 24.9253 30.1035 26.9427C30.1035 28.9601 29.3926 30.6797 27.9707 32.1016C26.5488 33.5234 24.8292 34.2344 22.8119 34.2344ZM4.72852 31.8646C3.46511 31.8646 2.38364 31.4148 1.48409 30.5153C0.58454 29.6157 0.134766 28.5342 0.134766 27.2708V7.72917C0.134766 6.46601 0.58454 5.38453 1.48409 4.48474C2.38364 3.58519 3.46511 3.13542 4.72852 3.13542H9.65039C10.1365 2.21181 10.811 1.49479 11.6738 0.984375C12.5367 0.473958 13.4785 0.21875 14.4994 0.21875C15.5202 0.21875 16.462 0.473958 17.3249 0.984375C18.1877 1.49479 18.8622 2.21181 19.3483 3.13542H24.2702C25.5333 3.13542 26.6148 3.58519 27.5146 4.48474C28.4142 5.38453 28.8639 6.46601 28.8639 7.72917V15.5677C28.8639 16.2726 28.5662 16.8012 27.9707 17.1536C27.3752 17.5061 26.7372 17.5486 26.0566 17.2812C25.5528 17.1111 25.0268 16.9835 24.4787 16.8984C23.9304 16.8134 23.3748 16.7708 22.8119 16.7708C22.5445 16.7708 22.2954 16.7769 22.0645 16.7891C21.8336 16.8012 21.5966 16.8316 21.3535 16.8802C21.232 16.7344 21.0862 16.5885 20.916 16.4427C20.7945 16.3455 20.6426 16.2543 20.4603 16.1693C20.278 16.0842 20.0896 16.0417 19.8952 16.0417H9.10352C8.69032 16.0417 8.34397 16.1814 8.06445 16.4609C7.78494 16.7404 7.64518 17.0868 7.64518 17.5C7.64518 17.9132 7.78494 18.2595 8.06445 18.5391C8.34397 18.8186 8.69032 18.9583 9.10352 18.9583H16.5046C16.0671 19.2986 15.6599 19.6753 15.2832 20.0885C14.9065 20.5017 14.5601 20.9514 14.2441 21.4375H9.10352C8.69032 21.4375 8.34397 21.5773 8.06445 21.8568C7.78494 22.1363 7.64518 22.4826 7.64518 22.8958C7.64518 23.309 7.78494 23.6554 8.06445 23.9349C8.34397 24.2144 8.69032 24.3542 9.10352 24.3542H12.9316C12.8101 24.7674 12.725 25.1927 12.6764 25.6302C12.6278 26.0677 12.6035 26.5174 12.6035 26.9792C12.6035 27.3438 12.6197 27.7035 12.652 28.0583C12.6846 28.4134 12.7413 28.7586 12.8223 29.0938C12.9681 29.7986 12.8526 30.4366 12.4759 31.0078C12.0992 31.579 11.5705 31.8646 10.89 31.8646H4.72852ZM21.5358 28.2188V30.5885C21.5358 30.9288 21.6634 31.2266 21.9186 31.4818C22.1738 31.737 22.4716 31.8646 22.8119 31.8646C23.1521 31.8646 23.4499 31.737 23.7051 31.4818C23.9603 31.2266 24.0879 30.9288 24.0879 30.5885V28.2188H26.4577C26.798 28.2188 27.0957 28.0911 27.3509 27.8359C27.6061 27.5807 27.7337 27.283 27.7337 26.9427C27.7337 26.6024 27.6061 26.3047 27.3509 26.0495C27.0957 25.7943 26.798 25.6667 26.4577 25.6667H24.0879V23.2969C24.0879 22.9566 23.9603 22.6589 23.7051 22.4036C23.4499 22.1484 23.1521 22.0208 22.8119 22.0208C22.4716 22.0208 22.1738 22.1484 21.9186 22.4036C21.6634 22.6589 21.5358 22.9566 21.5358 23.2969V25.6667H19.166C18.8257 25.6667 18.528 25.7943 18.2728 26.0495C18.0176 26.3047 17.89 26.6024 17.89 26.9427C17.89 27.283 18.0176 27.5807 18.2728 27.8359C18.528 28.0911 18.8257 28.2188 19.166 28.2188H21.5358ZM9.10352 13.5625H19.8952C20.3084 13.5625 20.6547 13.4227 20.9342 13.1432C21.2138 12.8637 21.3535 12.5174 21.3535 12.1042C21.3535 11.691 21.2138 11.3446 20.9342 11.0651C20.6547 10.7856 20.3084 10.6458 19.8952 10.6458H9.10352C8.69032 10.6458 8.34397 10.7856 8.06445 11.0651C7.78494 11.3446 7.64518 11.691 7.64518 12.1042C7.64518 12.5174 7.78494 12.8637 8.06445 13.1432C8.34397 13.4227 8.69032 13.5625 9.10352 13.5625Z" fill="#F5A623"/>
</svg>
