<svg width="32" height="31" viewBox="0 0 32 31" fill="none" xmlns="http://www.w3.org/2000/svg">
<path d="M15.5003 0.682617C15.8163 0.682617 16.1262 0.731228 16.43 0.828451C16.7338 0.925673 17.0194 1.07151 17.2868 1.26595L30.4118 11.292C30.7278 11.535 30.9101 11.851 30.9587 12.2399C31.0073 12.6288 30.9101 12.9934 30.667 13.3337C30.4239 13.6739 30.108 13.8684 29.7191 13.917C29.3302 13.9656 28.9656 13.8562 28.6253 13.5889L15.5003 3.56283L6.75033 10.2712V23.2503H11.1253C11.5385 23.2503 11.8849 23.3901 12.1644 23.6696C12.4439 23.9491 12.5837 24.2955 12.5837 24.7087C12.5837 25.1219 12.4439 25.4682 12.1644 25.7477C11.8849 26.0272 11.5385 26.167 11.1253 26.167H6.75033C5.94824 26.167 5.26161 25.8814 4.69043 25.3102C4.11925 24.739 3.83366 24.0524 3.83366 23.2503V12.4951L2.37533 13.6253C2.05935 13.8684 1.70085 13.9656 1.2998 13.917C0.898763 13.8684 0.576714 13.6739 0.333659 13.3337C0.0906033 13.0177 -0.000542536 12.6653 0.0602214 12.2764C0.120985 11.8875 0.309353 11.5715 0.625326 11.3285L13.7139 1.26595C13.9812 1.07151 14.2668 0.925673 14.5706 0.828451C14.8745 0.731228 15.1844 0.682617 15.5003 0.682617ZM23.5212 29.6305C22.5003 30.3354 21.3762 30.6331 20.1488 30.5238C18.9213 30.4144 17.8701 29.9222 16.9951 29.0472C16.1201 28.1722 15.6279 27.121 15.5186 25.8936C15.4092 24.6661 15.7069 23.542 16.4118 22.5212C15.7069 21.5003 15.4092 20.3762 15.5186 19.1488C15.6279 17.9213 16.1201 16.8701 16.9951 15.9951C17.8701 15.1201 18.9213 14.6279 20.1488 14.5186C21.3762 14.4092 22.5003 14.7069 23.5212 15.4118C24.542 14.7069 25.6661 14.4092 26.8936 14.5186C28.121 14.6279 29.1722 15.1201 30.0472 15.9951C30.9222 16.8701 31.4144 17.9213 31.5238 19.1488C31.6331 20.3762 31.3354 21.5003 30.6305 22.5212C31.3354 23.542 31.6331 24.6661 31.5238 25.8936C31.4144 27.121 30.9222 28.1722 30.0472 29.0472C29.1722 29.9222 28.121 30.4144 26.8936 30.5238C25.6661 30.6331 24.542 30.3354 23.5212 29.6305ZM23.5212 26.0576L25.1982 27.2243C25.6357 27.5403 26.1097 27.6739 26.6201 27.6253C27.1305 27.5767 27.5802 27.358 27.9691 26.9691C28.358 26.5802 28.5767 26.1305 28.6253 25.6201C28.6739 25.1097 28.5403 24.6357 28.2243 24.1982L27.0576 22.5212L28.2243 20.8441C28.5403 20.4066 28.6739 19.9326 28.6253 19.4222C28.5767 18.9118 28.358 18.4621 27.9691 18.0732C27.5802 17.6844 27.1305 17.4656 26.6201 17.417C26.1097 17.3684 25.6357 17.5021 25.1982 17.818L23.5212 18.9847L21.8441 17.818C21.4066 17.5021 20.9326 17.3684 20.4222 17.417C19.9118 17.4656 19.4621 17.6844 19.0732 18.0732C18.6844 18.4621 18.4656 18.9118 18.417 19.4222C18.3684 19.9326 18.5021 20.4066 18.818 20.8441L19.9847 22.5212L18.818 24.1982C18.5021 24.6357 18.3684 25.1097 18.417 25.6201C18.4656 26.1305 18.6844 26.5802 19.0732 26.9691C19.4621 27.358 19.9118 27.5767 20.4222 27.6253C20.9326 27.6739 21.4066 27.5403 21.8441 27.2243L23.5212 26.0576ZM23.5212 24.3441C24.0316 24.3441 24.463 24.1679 24.8154 23.8154C25.1679 23.463 25.3441 23.0316 25.3441 22.5212C25.3441 22.0107 25.1679 21.5793 24.8154 21.2269C24.463 20.8745 24.0316 20.6982 23.5212 20.6982C23.0107 20.6982 22.5793 20.8745 22.2269 21.2269C21.8745 21.5793 21.6982 22.0107 21.6982 22.5212C21.6982 23.0316 21.8745 23.463 22.2269 23.8154C22.5793 24.1679 23.0107 24.3441 23.5212 24.3441Z" fill="#B8B8B8"/>
</svg>
