<svg width="34" height="33" viewBox="0 0 34 33" fill="none" xmlns="http://www.w3.org/2000/svg">
<path d="M8.18827 28.4134C6.90007 28.4134 5.8124 27.9698 4.92525 27.0827C4.03809 26.1955 3.59452 25.1079 3.59452 23.8197V15.4707C3.13271 15.811 2.61622 15.9447 2.04504 15.8717C1.47386 15.7988 0.981671 15.4829 0.568476 14.9238C0.179587 14.4377 0.0276776 13.8848 0.112747 13.265C0.197817 12.6452 0.483407 12.1408 0.969518 11.752L13.6935 1.87174C14.1067 1.53147 14.5563 1.28841 15.0424 1.14258C15.5285 0.996745 16.0147 0.923828 16.5008 0.923828C16.9869 0.923828 17.473 0.996745 17.9591 1.14258C18.4452 1.28841 18.8949 1.53147 19.3081 1.87174L29.9174 10.1478C30.4036 10.5367 30.5251 11.0167 30.282 11.5879C30.039 12.1591 29.6015 12.3839 28.9695 12.2624C28.2404 12.1408 27.493 12.1044 26.7273 12.153C25.9617 12.2016 25.2265 12.3596 24.5216 12.627C22.9904 12.0679 21.4166 11.9586 19.8003 12.2988C18.1839 12.6391 16.7803 13.4047 15.5893 14.5957C14.3983 15.7867 13.6327 17.1903 13.2924 18.8066C12.9522 20.423 13.0615 21.9967 13.6206 23.528C13.4504 23.9655 13.3289 24.4152 13.256 24.877C13.1831 25.3388 13.1345 25.8006 13.1101 26.2624C13.0858 26.8457 12.8975 27.35 12.545 27.7754C12.1926 28.2007 11.7369 28.4134 11.1779 28.4134H8.18827ZM24.5216 31.1842C23.4036 31.8648 22.2126 32.1322 20.9487 31.9863C19.6848 31.8405 18.591 31.3058 17.6674 30.3822C16.7438 29.4586 16.2091 28.3587 16.0633 27.0827C15.9174 25.8066 16.1848 24.6217 16.8654 23.528C16.1848 22.4099 15.9174 21.219 16.0633 19.9551C16.2091 18.6912 16.7438 17.5974 17.6674 16.6738C18.591 15.7502 19.6909 15.2155 20.9669 15.0697C22.243 14.9238 23.4279 15.1912 24.5216 15.8717C25.6397 15.1912 26.8306 14.9238 28.0945 15.0697C29.3584 15.2155 30.4522 15.7502 31.3758 16.6738C32.2994 17.5974 32.8341 18.6973 32.9799 19.9733C33.1258 21.2494 32.8584 22.4342 32.1779 23.528C32.8584 24.6461 33.1258 25.837 32.9799 27.1009C32.8341 28.3648 32.2994 29.4586 31.3758 30.3822C30.4522 31.3058 29.3523 31.8405 28.0763 31.9863C26.8003 32.1322 25.6154 31.8648 24.5216 31.1842ZM24.5216 25.8249C25.1536 25.8249 25.6943 25.6 26.144 25.1504C26.5937 24.7007 26.8185 24.1599 26.8185 23.528C26.8185 22.8961 26.5937 22.3553 26.144 21.9056C25.6943 21.4559 25.1536 21.2311 24.5216 21.2311C23.8897 21.2311 23.3489 21.4559 22.8992 21.9056C22.4496 22.3553 22.2247 22.8961 22.2247 23.528C22.2247 24.1599 22.4496 24.7007 22.8992 25.1504C23.3489 25.6 23.8897 25.8249 24.5216 25.8249Z" fill="#F5A623"/>
</svg>
